<?xml version="1.0" encoding="UTF-8" standalone="no"?>
<svg
   xmlns:dc="http://purl.org/dc/elements/1.1/"
   xmlns:cc="http://creativecommons.org/ns#"
   xmlns:rdf="http://www.w3.org/1999/02/22-rdf-syntax-ns#"
   xmlns:svg="http://www.w3.org/2000/svg"
   xmlns="http://www.w3.org/2000/svg"
   xmlns:sodipodi="http://sodipodi.sourceforge.net/DTD/sodipodi-0.dtd"
   xmlns:inkscape="http://www.inkscape.org/namespaces/inkscape"
   viewBox="0 0 34 34"
   version="1.1"
   id="svg4"
   sodipodi:docname="icon.svg"
   inkscape:version="0.92.4 5da689c313, 2019-01-14">
  <metadata
     id="metadata10">
    <rdf:RDF>
      <cc:Work
         rdf:about="">
        <dc:format>image/svg+xml</dc:format>
        <dc:type
           rdf:resource="http://purl.org/dc/dcmitype/StillImage" />
      </cc:Work>
    </rdf:RDF>
  </metadata>
  <defs
     id="defs8" />
  <sodipodi:namedview
     pagecolor="#ffffff"
     bordercolor="#666666"
     borderopacity="1"
     objecttolerance="10"
     gridtolerance="10"
     guidetolerance="10"
     inkscape:pageopacity="0"
     inkscape:pageshadow="2"
     inkscape:window-width="1920"
     inkscape:window-height="1052"
     id="namedview6"
     showgrid="false"
     inkscape:zoom="13.882353"
     inkscape:cx="19.027219"
     inkscape:cy="20.490702"
     inkscape:window-x="0"
     inkscape:window-y="0"
     inkscape:window-maximized="1"
     inkscape:current-layer="svg4" />
  <path
     d="M 17 0 C 7.611 0 0 7.611 0 17 C 0 26.389 7.611 34 17 34 C 26.389 34 34 26.389 34 17 C 34 7.611 26.389 0 17 0 z M 17 1.8886719 C 25.346 1.8886719 32.111328 8.654 32.111328 17 C 32.111328 25.346 25.346 32.111328 17 32.111328 C 8.654 32.111328 1.8886719 25.346 1.8886719 17 C 1.8886719 8.654 8.654 1.8886719 17 1.8886719 z M 12.347656 6.8535156 C 11.934331 6.8815015 11.536929 6.9927662 11.210938 7.2695312 C 10.413062 7.8674067 10.562634 8.9010202 10.552734 9.7714844 L 9.4511719 9.7714844 C 8.6273438 9.6400193 7.7581435 10.21145 7.6953125 11.076172 C 7.6793525 15.953392 7.69206 20.831494 7.6875 25.708984 C 7.6741436 26.419214 8.2720209 27.071406 8.9765625 27.134766 C 14.166659 27.150666 19.35846 27.137978 24.548828 27.142578 C 25.372656 27.274043 26.241857 26.702613 26.304688 25.837891 C 26.320588 21.461754 26.308 17.083438 26.3125 12.707031 C 26.253771 11.944947 26.47721 11.111678 26.070312 10.421875 C 25.578516 9.6036585 24.577998 9.7891474 23.777344 9.7714844 C 23.277993 9.9256258 23.487716 9.3711628 23.447266 9.0664062 C 23.558677 8.168512 23.094223 7.1940266 22.177734 6.9335938 C 21.393694 6.8276904 20.458623 6.7160013 19.806641 7.2695312 C 19.008766 7.8674069 19.158337 8.9010204 19.148438 9.7714844 L 15.181641 9.7714844 C 14.68229 9.9256258 14.892012 9.3711628 14.851562 9.0664062 C 14.962974 8.168512 14.498521 7.1940259 13.582031 6.9335938 C 13.190011 6.8806421 12.760982 6.8255298 12.347656 6.8535156 z M 12.777344 8.3203125 C 13.020493 8.3247777 13.250887 8.3868867 13.394531 8.5546875 C 13.451161 9.3895936 13.401969 10.233903 13.417969 11.072266 C 13.357211 11.474552 13.581911 12.020983 13.203125 12.287109 C 12.795175 12.279985 12.084638 12.502237 11.986328 11.953125 C 11.98633 11.326793 11.986328 10.700551 11.986328 10.074219 C 12.030508 9.5316944 11.885859 8.9436187 12.083984 8.4375 C 12.278203 8.3698618 12.534194 8.3158473 12.777344 8.3203125 z M 21.373047 8.3203125 C 21.616197 8.3247775 21.846589 8.3868862 21.990234 8.5546875 C 22.046864 9.3895936 21.997672 10.233903 22.013672 11.072266 C 21.952914 11.474552 22.177614 12.020983 21.798828 12.287109 C 21.390878 12.279985 20.680341 12.502237 20.582031 11.953125 L 20.582031 10.074219 C 20.626211 9.5316944 20.481562 8.9436187 20.679688 8.4375 C 20.873907 8.3698623 21.129897 8.3158475 21.373047 8.3203125 z M 9.1210938 14.119141 L 24.878906 14.119141 L 24.878906 25.708984 L 9.1210938 25.708984 L 9.1210938 14.119141 z "
     id="path2" />
</svg>
